# xmcd
#
# Track frame offsets: 
#        150
#        20958
#        33837
#        52563
#        75895
#        93574
#        111978
#        134689
#        150815
#        170086
#        187248
#        206561
#        228811
#        257527
#        279590
#        305518
#
# Disc length: 4353 seconds
#
# Revision: 0
# Processed by: cddbd v1.5.2PL0 Copyright (c) Steve Scherf et al.
# Submitted via: ExactAudioCopy v0.95b3
#
DISCID=ce10ff10
DTITLE=Midian - Thrashology
DYEAR=2010
DGENRE=Thrash Metal
TTITLE0=The Last War
TTITLE1=One Of Dissidence
TTITLE2=Malfurious Wrath
TTITLE3=Suicide Pact
TTITLE4=Anthem
TTITLE5=Candy From A Stranger
TTITLE6=Suicide Pact
TTITLE7=One Foot In The Grave
TTITLE8=Slaughter House
TTITLE9=Anthem
TTITLE10=Candy From A Stranger
TTITLE11=Suicide Pact
TTITLE12=Legend Of Sleepy Hollow
TTITLE13=Deathwatch
TTITLE14=Cries From The Deep
TTITLE15=Persecution
EXTD=
EXTT0=
EXTT1=
EXTT2=
EXTT3=
EXTT4=
EXTT5=
EXTT6=
EXTT7=
EXTT8=
EXTT9=
EXTT10=
EXTT11=
EXTT12=
EXTT13=
EXTT14=
EXTT15=
PLAYORDER=
